<svg width="30" height="30" viewBox="0 0 30 30" fill="none" xmlns="http://www.w3.org/2000/svg">
<path d="M2 7.2C2 5.82087 2.54786 4.49823 3.52304 3.52304C4.49823 2.54786 5.82087 2 7.2 2H22.8C24.1791 2 25.5018 2.54786 26.477 3.52304C27.4521 4.49823 28 5.82087 28 7.2V22.8C28 24.1791 27.4521 25.5018 26.477 26.477C25.5018 27.4521 24.1791 28 22.8 28H7.2C5.82087 28 4.49823 27.4521 3.52304 26.477C2.54786 25.5018 2 24.1791 2 22.8V7.2Z" stroke="#E0E0E0" stroke-width="2.16667" stroke-linecap="round" stroke-linejoin="round"/>
<path d="M10 13C11.6569 13 13 11.6569 13 10C13 8.34315 11.6569 7 10 7C8.34315 7 7 8.34315 7 10C7 11.6569 8.34315 13 10 13Z" stroke="#E0E0E0" stroke-width="2.16667" stroke-linecap="round" stroke-linejoin="round"/>
<path d="M19.0589 18.6523L10 28H22.8913C23.981 28 25.0261 27.5939 25.7966 26.8712C26.5671 26.1484 27 25.1681 27 24.1459V24.0134C27 23.5489 26.8141 23.3705 26.4794 23.0267L22.1975 18.6463C21.9979 18.4421 21.7552 18.2792 21.4847 18.1679C21.2143 18.0566 20.9221 17.9994 20.6268 18C20.3315 18.0006 20.0395 18.0589 19.7696 18.1712C19.4996 18.2835 19.2576 18.4474 19.0589 18.6523V18.6523Z" stroke="#E0E0E0" stroke-width="2.16667" stroke-linecap="round" stroke-linejoin="round"/>
</svg>
