<svg width="40" height="40" viewBox="0 0 40 40" fill="none" xmlns="http://www.w3.org/2000/svg">
<path d="M33.3333 0H6.66667C2.98477 0 0 2.98477 0 6.66667V33.3333C0 37.0152 2.98477 40 6.66667 40H33.3333C37.0152 40 40 37.0152 40 33.3333V6.66667C40 2.98477 37.0152 0 33.3333 0Z" fill="white"/>
<path d="M13.1861 5.31201H5.27441V13.2802H13.1861V5.31201Z" fill="#F1F3F4"/>
<path d="M13.1858 14.2764H5.27412C5.01183 14.2764 4.76028 14.1715 4.57482 13.9847C4.38935 13.7979 4.28516 13.5446 4.28516 13.2804V5.31219C4.28516 5.04803 4.38935 4.79468 4.57482 4.60789C4.76028 4.4211 5.01183 4.31616 5.27412 4.31616H13.1858C13.4481 4.31616 13.6997 4.4211 13.8851 4.60789C14.0706 4.79468 14.1748 5.04803 14.1748 5.31219V13.2804C14.1748 13.5446 14.0706 13.7979 13.8851 13.9847C13.6997 14.1715 13.4481 14.2764 13.1858 14.2764ZM6.26308 12.2844H12.1969V6.30822H6.26308V12.2844Z" fill="#7F778C"/>
<path d="M9.89003 7.96826H8.57142C8.20729 7.96826 7.91211 8.26555 7.91211 8.63228V9.96031C7.91211 10.327 8.20729 10.6243 8.57142 10.6243H9.89003C10.2542 10.6243 10.5493 10.327 10.5493 9.96031V8.63228C10.5493 8.26555 10.2542 7.96826 9.89003 7.96826Z" fill="#7F778C"/>
<path d="M34.2838 5.31201H26.3721V13.2802H34.2838V5.31201Z" fill="#F1F3F4"/>
<path d="M34.2845 14.2764H26.3728C26.1105 14.2764 25.8589 14.1715 25.6734 13.9847C25.488 13.7979 25.3838 13.5446 25.3838 13.2804V5.31219C25.3838 5.04803 25.488 4.79468 25.6734 4.60789C25.8589 4.4211 26.1105 4.31616 26.3728 4.31616H34.2845C34.5467 4.31616 34.7983 4.4211 34.9838 4.60789C35.1692 4.79468 35.2734 5.04803 35.2734 5.31219V13.2804C35.2734 13.5446 35.1692 13.7979 34.9838 13.9847C34.7983 14.1715 34.5467 14.2764 34.2845 14.2764ZM27.3617 12.2844H33.2955V6.30822H27.3617V12.2844Z" fill="#7F778C"/>
<path d="M30.9877 7.96826H29.6691C29.3049 7.96826 29.0098 8.26555 29.0098 8.63228V9.96031C29.0098 10.327 29.3049 10.6243 29.6691 10.6243H30.9877C31.3518 10.6243 31.647 10.327 31.647 9.96031V8.63228C31.647 8.26555 31.3518 7.96826 30.9877 7.96826Z" fill="#7F778C"/>
<path d="M13.1861 26.5608H5.27441V34.529H13.1861V26.5608Z" fill="#F1F3F4"/>
<path d="M13.1858 35.525H5.27412C5.01183 35.525 4.76028 35.42 4.57482 35.2332C4.38935 35.0464 4.28516 34.7931 4.28516 34.5289V26.5607C4.28516 26.2966 4.38935 26.0432 4.57482 25.8564C4.76028 25.6696 5.01183 25.5647 5.27412 25.5647H13.1858C13.4481 25.5647 13.6997 25.6696 13.8851 25.8564C14.0706 26.0432 14.1748 26.2966 14.1748 26.5607V34.5289C14.1748 34.7931 14.0706 35.0464 13.8851 35.2332C13.6997 35.42 13.4481 35.525 13.1858 35.525ZM6.26308 33.5329H12.1969V27.5568H6.26308V33.5329Z" fill="#7F778C"/>
<path d="M9.89003 29.2168H8.57142C8.20729 29.2168 7.91211 29.5141 7.91211 29.8808V31.2088C7.91211 31.5756 8.20729 31.8729 8.57142 31.8729H9.89003C10.2542 31.8729 10.5493 31.5756 10.5493 31.2088V29.8808C10.5493 29.5141 10.2542 29.2168 9.89003 29.2168Z" fill="#7F778C"/>
<path d="M18.4609 14.2764H17.1423C16.88 14.2764 16.6284 14.1715 16.443 13.9847C16.2575 13.7979 16.1533 13.5446 16.1533 13.2804V5.31219C16.1533 5.04803 16.2575 4.79468 16.443 4.60789C16.6284 4.4211 16.88 4.31616 17.1423 4.31616C17.4046 4.31616 17.6561 4.4211 17.8416 4.60789C18.0271 4.79468 18.1312 5.04803 18.1312 5.31219V12.2844H18.4609C18.7232 12.2844 18.9747 12.3893 19.1602 12.5761C19.3457 12.7629 19.4499 13.0162 19.4499 13.2804C19.4499 13.5446 19.3457 13.7979 19.1602 13.9847C18.9747 14.1715 18.7232 14.2764 18.4609 14.2764V14.2764Z" fill="#7F778C"/>
<path d="M22.416 6.30822H21.0974C20.8351 6.30822 20.5835 6.20328 20.3981 6.01649C20.2126 5.82969 20.1084 5.57635 20.1084 5.31219C20.1084 5.04803 20.2126 4.79468 20.3981 4.60789C20.5835 4.4211 20.8351 4.31616 21.0974 4.31616H22.416C22.6783 4.31616 22.9298 4.4211 23.1153 4.60789C23.3007 4.79468 23.4049 5.04803 23.4049 5.31219C23.4049 5.57635 23.3007 5.82969 23.1153 6.01649C22.9298 6.20328 22.6783 6.30822 22.416 6.30822Z" fill="#7F778C"/>
<path d="M22.4167 18.2606H17.1423C16.88 18.2606 16.6284 18.1556 16.443 17.9688C16.2575 17.782 16.1533 17.5287 16.1533 17.2645C16.1533 17.0004 16.2575 16.747 16.443 16.5602C16.6284 16.3734 16.88 16.2685 17.1423 16.2685H21.4278V10.2923H21.0981C20.8358 10.2923 20.5843 10.1874 20.3988 10.0006C20.2134 9.81383 20.1092 9.56048 20.1092 9.29632C20.1092 9.03216 20.2134 8.77881 20.3988 8.59202C20.5843 8.40523 20.8358 8.30029 21.0981 8.30029H22.4167C22.679 8.30029 22.9306 8.40523 23.1161 8.59202C23.3015 8.77881 23.4057 9.03216 23.4057 9.29632V17.2645C23.4057 17.5287 23.3015 17.782 23.1161 17.9688C22.9306 18.1556 22.679 18.2606 22.4167 18.2606Z" fill="#7F778C"/>
<path d="M22.416 35.525C22.1537 35.525 21.9021 35.42 21.7167 35.2332C21.5312 35.0464 21.427 34.7931 21.427 34.5289V27.5568H21.0974C20.8351 27.5568 20.5835 27.4518 20.3981 27.265C20.2126 27.0782 20.1084 26.8249 20.1084 26.5607C20.1084 26.2966 20.2126 26.0432 20.3981 25.8564C20.5835 25.6696 20.8351 25.5647 21.0974 25.5647H22.416C22.6783 25.5647 22.9298 25.6696 23.1153 25.8564C23.3007 26.0432 23.4049 26.2966 23.4049 26.5607V34.5289C23.4049 34.7931 23.3007 35.0464 23.1153 35.2332C22.9298 35.42 22.6783 35.525 22.416 35.525Z" fill="#7F778C"/>
<path d="M18.4609 35.525H17.1423C16.88 35.525 16.6284 35.4201 16.443 35.2333C16.2575 35.0465 16.1533 34.7931 16.1533 34.529C16.1533 34.2648 16.2575 34.0115 16.443 33.8247C16.6284 33.6379 16.88 33.533 17.1423 33.533H18.4609C18.7232 33.533 18.9747 33.6379 19.1602 33.8247C19.3457 34.0115 19.4499 34.2648 19.4499 34.529C19.4499 34.7931 19.3457 35.0465 19.1602 35.2333C18.9747 35.4201 18.7232 35.525 18.4609 35.525V35.525Z" fill="#7F778C"/>
<path d="M18.4609 31.5408H17.1423C16.88 31.5408 16.6284 31.4359 16.443 31.2491C16.2575 31.0623 16.1533 30.809 16.1533 30.5448V22.5766C16.1533 22.3124 16.2575 22.0591 16.443 21.8723C16.6284 21.6855 16.88 21.5806 17.1423 21.5806H22.4167C22.679 21.5806 22.9306 21.6855 23.1161 21.8723C23.3015 22.0591 23.4057 22.3124 23.4057 22.5766C23.4057 22.8408 23.3015 23.0941 23.1161 23.2809C22.9306 23.4677 22.679 23.5726 22.4167 23.5726H18.1312V29.5488H18.4609C18.7232 29.5488 18.9747 29.6537 19.1602 29.8405C19.3457 30.0273 19.4499 30.2806 19.4499 30.5448C19.4499 30.809 19.3457 31.0623 19.1602 31.2491C18.9747 31.4359 18.7232 31.5408 18.4609 31.5408V31.5408Z" fill="#7F778C"/>
<path d="M13.1858 23.5728H5.27412C5.01183 23.5728 4.76028 23.4678 4.57482 23.281C4.38935 23.0943 4.28516 22.8409 4.28516 22.5767C4.28516 22.3126 4.38935 22.0592 4.57482 21.8724C4.76028 21.6857 5.01183 21.5807 5.27412 21.5807H12.1969V21.2487C12.1969 20.9845 12.3011 20.7312 12.4865 20.5444C12.672 20.3576 12.9235 20.2527 13.1858 20.2527C13.4481 20.2527 13.6997 20.3576 13.8851 20.5444C14.0706 20.7312 14.1748 20.9845 14.1748 21.2487V22.5767C14.1748 22.8409 14.0706 23.0943 13.8851 23.281C13.6997 23.4678 13.4481 23.5728 13.1858 23.5728Z" fill="#7F778C"/>
<path d="M5.27412 19.5884C5.01183 19.5884 4.76028 19.4835 4.57482 19.2967C4.38935 19.1099 4.28516 18.8565 4.28516 18.5924V17.2643C4.28516 17.0002 4.38935 16.7468 4.57482 16.56C4.76028 16.3732 5.01183 16.2683 5.27412 16.2683C5.53641 16.2683 5.78795 16.3732 5.97342 16.56C6.15889 16.7468 6.26308 17.0002 6.26308 17.2643V18.5924C6.26308 18.8565 6.15889 19.1099 5.97342 19.2967C5.78795 19.4835 5.53641 19.5884 5.27412 19.5884V19.5884Z" fill="#7F778C"/>
<path d="M17.1419 23.5725C16.8796 23.5725 16.628 23.4676 16.4426 23.2808C16.2571 23.094 16.1529 22.8406 16.1529 22.5765V18.2604H10.2191V18.5924C10.2191 18.8565 10.1149 19.1099 9.92948 19.2967C9.74401 19.4835 9.49246 19.5884 9.23017 19.5884C8.96788 19.5884 8.71634 19.4835 8.53087 19.2967C8.3454 19.1099 8.24121 18.8565 8.24121 18.5924V17.2643C8.24121 17.0002 8.3454 16.7468 8.53087 16.56C8.71634 16.3732 8.96788 16.2683 9.23017 16.2683H17.1419C17.4042 16.2683 17.6557 16.3732 17.8412 16.56C18.0266 16.7468 18.1308 17.0002 18.1308 17.2643V22.5765C18.1308 22.8406 18.0266 23.094 17.8412 23.2808C17.6557 23.4676 17.4042 23.5725 17.1419 23.5725Z" fill="#7F778C"/>
<path d="M26.3728 19.5884C26.1105 19.5884 25.8589 19.4835 25.6734 19.2967C25.488 19.1099 25.3838 18.8565 25.3838 18.5924V17.2643C25.3838 17.0002 25.488 16.7468 25.6734 16.56C25.8589 16.3732 26.1105 16.2683 26.3728 16.2683H34.2845C34.5467 16.2683 34.7983 16.3732 34.9838 16.56C35.1692 16.7468 35.2734 17.0002 35.2734 17.2643C35.2734 17.5285 35.1692 17.7818 34.9838 17.9686C34.7983 18.1554 34.5467 18.2604 34.2845 18.2604H27.3617V18.5924C27.3617 18.8565 27.2575 19.1099 27.0721 19.2967C26.8866 19.4835 26.635 19.5884 26.3728 19.5884V19.5884Z" fill="#7F778C"/>
<path d="M34.2839 23.5728C34.0216 23.5728 33.77 23.4678 33.5846 23.281C33.3991 23.0943 33.2949 22.8409 33.2949 22.5767V21.2487C33.2949 20.9845 33.3991 20.7312 33.5846 20.5444C33.77 20.3576 34.0216 20.2527 34.2839 20.2527C34.5462 20.2527 34.7977 20.3576 34.9832 20.5444C35.1687 20.7312 35.2728 20.9845 35.2728 21.2487V22.5767C35.2728 22.8409 35.1687 23.0943 34.9832 23.281C34.7977 23.4678 34.5462 23.5728 34.2839 23.5728Z" fill="#7F778C"/>
<path d="M30.3284 23.5725H22.4167C22.1544 23.5725 21.9029 23.4676 21.7174 23.2808C21.5319 23.094 21.4277 22.8406 21.4277 22.5765V17.2643C21.4277 17.0002 21.5319 16.7468 21.7174 16.56C21.9029 16.3732 22.1544 16.2683 22.4167 16.2683C22.679 16.2683 22.9305 16.3732 23.116 16.56C23.3015 16.7468 23.4057 17.0002 23.4057 17.2643V21.5805H29.3394V21.2484C29.3394 20.9843 29.4436 20.7309 29.6291 20.5441C29.8146 20.3574 30.0661 20.2524 30.3284 20.2524C30.5907 20.2524 30.8422 20.3574 31.0277 20.5441C31.2132 20.7309 31.3174 20.9843 31.3174 21.2484V22.5765C31.3174 22.8406 31.2132 23.094 31.0277 23.2808C30.8422 23.4676 30.5907 23.5725 30.3284 23.5725Z" fill="#7F778C"/>
<path d="M26.3728 31.5409C26.1105 31.5409 25.8589 31.4359 25.6734 31.2491C25.488 31.0623 25.3838 30.809 25.3838 30.5448V26.5607C25.3838 26.2966 25.488 26.0432 25.6734 25.8564C25.8589 25.6696 26.1105 25.5647 26.3728 25.5647H34.2845C34.5467 25.5647 34.7983 25.6696 34.9838 25.8564C35.1692 26.0432 35.2734 26.2966 35.2734 26.5607C35.2734 26.8249 35.1692 27.0782 34.9838 27.265C34.7983 27.4518 34.5467 27.5568 34.2845 27.5568H27.3617V30.5448C27.3617 30.809 27.2575 31.0623 27.0721 31.2491C26.8866 31.4359 26.635 31.5409 26.3728 31.5409Z" fill="#7F778C"/>
<path d="M34.2839 35.525C34.0216 35.525 33.77 35.4201 33.5846 35.2333C33.3991 35.0465 33.2949 34.7931 33.2949 34.529V30.5449C33.2949 30.2807 33.3991 30.0273 33.5846 29.8406C33.77 29.6538 34.0216 29.5488 34.2839 29.5488C34.5462 29.5488 34.7977 29.6538 34.9832 29.8406C35.1687 30.0273 35.2728 30.2807 35.2728 30.5449V34.529C35.2728 34.7931 35.1687 35.0465 34.9832 35.2333C34.7977 35.4201 34.5462 35.525 34.2839 35.525Z" fill="#7F778C"/>
<path d="M30.3284 35.5249H22.4167C22.1544 35.5249 21.9029 35.42 21.7174 35.2332C21.5319 35.0464 21.4277 34.793 21.4277 34.5289V29.2167C21.4277 28.9526 21.5319 28.6992 21.7174 28.5124C21.9029 28.3256 22.1544 28.2207 22.4167 28.2207C22.679 28.2207 22.9305 28.3256 23.116 28.5124C23.3015 28.6992 23.4057 28.9526 23.4057 29.2167V33.5328H29.3394V30.5448C29.3394 30.2806 29.4436 30.0273 29.6291 29.8405C29.8146 29.6537 30.0661 29.5487 30.3284 29.5487C30.5907 29.5487 30.8422 29.6537 31.0277 29.8405C31.2132 30.0273 31.3174 30.2806 31.3174 30.5448V34.5289C31.3174 34.793 31.2132 35.0464 31.0277 35.2332C30.8422 35.42 30.5907 35.5249 30.3284 35.5249Z" fill="#7F778C"/>
<path d="M5.27412 14.2764C5.01183 14.2764 4.76028 14.1715 4.57482 13.9847C4.38935 13.7979 4.28516 13.5446 4.28516 13.2804V5.31219C4.28516 5.04803 4.38935 4.79468 4.57482 4.60789C4.76028 4.4211 5.01183 4.31616 5.27412 4.31616H13.1858C13.4481 4.31616 13.6997 4.4211 13.8851 4.60789C14.0706 4.79468 14.1748 5.04803 14.1748 5.31219C14.1748 5.57635 14.0706 5.82969 13.8851 6.01649C13.6997 6.20328 13.4481 6.30822 13.1858 6.30822H6.26308V13.2804C6.26308 13.5446 6.15889 13.7979 5.97342 13.9847C5.78795 14.1715 5.53641 14.2764 5.27412 14.2764Z" fill="#AAADBF"/>
<path d="M5.27412 35.525C5.01183 35.525 4.76028 35.42 4.57482 35.2332C4.38935 35.0464 4.28516 34.7931 4.28516 34.5289V26.5607C4.28516 26.2966 4.38935 26.0432 4.57482 25.8564C4.76028 25.6696 5.01183 25.5647 5.27412 25.5647H13.1858C13.4481 25.5647 13.6997 25.6696 13.8851 25.8564C14.0706 26.0432 14.1748 26.2966 14.1748 26.5607C14.1748 26.8249 14.0706 27.0782 13.8851 27.265C13.6997 27.4518 13.4481 27.5568 13.1858 27.5568H6.26308V34.5289C6.26308 34.7931 6.15889 35.0464 5.97342 35.2332C5.78795 35.42 5.53641 35.525 5.27412 35.525Z" fill="#AAADBF"/>
<path d="M26.3728 14.2764C26.1105 14.2764 25.8589 14.1715 25.6734 13.9847C25.488 13.7979 25.3838 13.5446 25.3838 13.2804V5.31219C25.3838 5.04803 25.488 4.79468 25.6734 4.60789C25.8589 4.4211 26.1105 4.31616 26.3728 4.31616H34.2845C34.5467 4.31616 34.7983 4.4211 34.9838 4.60789C35.1692 4.79468 35.2734 5.04803 35.2734 5.31219C35.2734 5.57635 35.1692 5.82969 34.9838 6.01649C34.7983 6.20328 34.5467 6.30822 34.2845 6.30822H27.3617V13.2804C27.3617 13.5446 27.2575 13.7979 27.0721 13.9847C26.8866 14.1715 26.635 14.2764 26.3728 14.2764Z" fill="#AAADBF"/>
</svg>
