<?xml version="1.0" encoding="utf-8"?>
<!-- Generator: Adobe Illustrator 26.3.1, SVG Export Plug-In . SVG Version: 6.00 Build 0)  -->
<svg version="1.1" id="Calque_1" xmlns="http://www.w3.org/2000/svg" xmlns:xlink="http://www.w3.org/1999/xlink" x="0px" y="0px"
	 viewBox="0 0 700 700" style="enable-background:new 0 0 700 700;" xml:space="preserve">
<style type="text/css">
	.st0{fill:#A8D5E2;}
</style>
<g>
	<path class="st0" d="M585.9,317c11.2-11.2,11.8-29.7,0.6-40.9c-3.9-3.9-9-6.7-14.6-7.8l-134.4-20.2L381,124.3
		c-6.2-15.1-23.5-22.4-38.6-16.2c-7.3,2.8-12.9,9-16.2,16.2l-61.6,123.8l-136.1,20.2c-15.7,3.4-25.8,18.5-22.4,34.2
		c1.1,5.6,3.9,10.6,7.8,14.6l97.4,101.4v2.2l-22.4,136.1c-3.4,17.4,7.8,33.6,24.6,37c6.7,1.1,14,0.6,20.2-2.8l113.7-65h2.2
		l113.7,63.3c15.7,7.8,34.7,1.1,42-14.6c2.8-6.2,3.9-13.4,2.8-20.2l-22.4-136.1v-2.2L585.9,317z"/>
</g>
</svg>
