<svg width="18" height="18" viewBox="0 0 18 18" fill="none" xmlns="http://www.w3.org/2000/svg">
<path d="M12.0002 11.8C11.6201 11.9323 11.2122 12.0003 10.8002 12C9.88547 11.9663 9.02419 11.6314 8.40547 11.0689C7.78675 10.5064 7.46117 9.76234 7.50022 9C7.46117 8.23766 7.78675 7.49357 8.40547 6.93109C9.02419 6.36862 9.88547 6.03375 10.8002 6C11.1342 6.00174 11.466 6.04557 11.7842 6.13" stroke="#A8D5E2" stroke-width="1.07143" stroke-linecap="round" stroke-linejoin="round"/>
<path d="M6 8H9.6" stroke="#A8D5E2" stroke-width="1.07143" stroke-linecap="round" stroke-linejoin="round"/>
<path d="M6 10H9.6" stroke="#A8D5E2" stroke-width="1.07143" stroke-linecap="round" stroke-linejoin="round"/>
<path d="M9 17C13.4183 17 17 13.4183 17 9C17 4.58172 13.4183 1 9 1C4.58172 1 1 4.58172 1 9C1 13.4183 4.58172 17 9 17Z" stroke="#A8D5E2" stroke-width="1.07143" stroke-linecap="round" stroke-linejoin="round"/>
</svg>
