<svg width="28" height="24" viewBox="0 0 28 24" fill="none" xmlns="http://www.w3.org/2000/svg">
<g clip-path="url(#clip0_366_40)">
<path d="M19.625 5.625C19.625 8.18437 16.1984 12.7453 14.6937 14.5828C14.3328 15.075 13.6672 15.075 13.3063 14.5828C11.8016 12.7453 8.375 8.18437 8.375 5.625C8.375 2.51859 10.8922 0 14 0C17.1078 0 19.625 2.51859 19.625 5.625ZM14 7.125C15.0359 7.125 15.875 6.28594 15.875 5.25C15.875 4.21453 15.0359 3.375 14 3.375C12.9641 3.375 12.125 4.21453 12.125 5.25C12.125 6.28594 12.9641 7.125 14 7.125ZM20.45 8.42812C20.4734 8.37187 20.4969 8.31562 20.5203 8.25469L25.9578 6.07969C26.6984 5.78437 27.5 6.32812 27.5 7.125V19.8187C27.5 20.2781 27.2188 20.6906 26.7922 20.8641L20 23.5781V9.39375C20.1641 9.07031 20.3141 8.75156 20.45 8.42812ZM7.55 8.42812C7.68594 8.75156 7.83594 9.07031 8 9.39375V21.1781L2.04266 23.5641C1.30391 23.8172 0.5 23.3156 0.5 22.5187V9.825C0.5 9.36562 0.780078 8.91094 1.20734 8.77969L6.95 6.48281C7.0625 7.14844 7.29219 7.80937 7.55 8.42812V8.42812ZM15.8656 15.5203C16.5172 14.7469 17.5391 13.4203 18.5 11.9531V23.6391L9.5 21.0656V11.9531C10.4609 13.4203 11.4828 14.7469 12.1344 15.5203C13.0953 16.7625 14.9047 16.7625 15.8656 15.5203Z" fill="#E0E0E0"/>
</g>
<defs>
<clipPath id="clip0_366_40">
<rect width="27" height="24" fill="white" transform="translate(0.5)"/>
</clipPath>
</defs>
</svg>
