<svg width="16" height="16" viewBox="0 0 16 16" fill="none" xmlns="http://www.w3.org/2000/svg">
<path d="M10.2854 8.57143C13.1258 8.57143 15.4283 7.54808 15.4283 6.28571C15.4283 5.02335 13.1258 4 10.2854 4C7.44511 4 5.14258 5.02335 5.14258 6.28571C5.14258 7.54808 7.44511 8.57143 10.2854 8.57143Z" stroke="#A8D5E2" stroke-width="1.07143" stroke-linecap="round" stroke-linejoin="round"/>
<path d="M5.14258 6.28564V13.1428C5.14258 14.3999 7.42829 15.4285 10.2854 15.4285C13.1426 15.4285 15.4283 14.3999 15.4283 13.1428V6.28564" stroke="#A8D5E2" stroke-width="1.07143" stroke-linecap="round" stroke-linejoin="round"/>
<path d="M15.4283 9.71436C15.4283 10.9715 13.1426 12.0001 10.2854 12.0001C7.42829 12.0001 5.14258 10.9715 5.14258 9.71436" stroke="#A8D5E2" stroke-width="1.07143" stroke-linecap="round" stroke-linejoin="round"/>
<path d="M10.1713 1.71417C8.83585 0.890025 7.28138 0.491442 5.71415 0.571309C2.86843 0.571309 0.571289 1.59988 0.571289 2.85702C0.571289 3.53131 1.23415 4.13702 2.28557 4.57131" stroke="#A8D5E2" stroke-width="1.07143" stroke-linecap="round" stroke-linejoin="round"/>
<path d="M2.28557 11.4284C1.23415 10.9941 0.571289 10.3884 0.571289 9.71408V2.85693" stroke="#A8D5E2" stroke-width="1.07143" stroke-linecap="round" stroke-linejoin="round"/>
<path d="M2.28557 7.99993C1.23415 7.56564 0.571289 6.95993 0.571289 6.28564" stroke="#A8D5E2" stroke-width="1.07143" stroke-linecap="round" stroke-linejoin="round"/>
</svg>
