<svg width="12" height="11" viewBox="0 0 12 11" fill="none" xmlns="http://www.w3.org/2000/svg">
<path d="M11.7097 2.32804C11.5235 1.89693 11.255 1.50626 10.9193 1.17791C10.5833 0.848573 10.1872 0.586855 9.75251 0.406987C9.30173 0.219733 8.81824 0.123886 8.33012 0.12501C7.64532 0.12501 6.97719 0.312531 6.39657 0.666738C6.25766 0.75147 6.1257 0.844537 6.00069 0.945937C5.87567 0.844537 5.74371 0.75147 5.60481 0.666738C5.02419 0.312531 4.35605 0.12501 3.67125 0.12501C3.17814 0.12501 2.70031 0.219465 2.24887 0.406987C1.81271 0.587563 1.41961 0.847315 1.08207 1.17791C0.745914 1.50589 0.477385 1.89665 0.2917 2.32804C0.0986224 2.7767 0 3.25315 0 3.74348C0 4.20603 0.0944553 4.68803 0.281977 5.17837C0.438939 5.58814 0.663965 6.01318 0.951498 6.4424C1.40711 7.12164 2.03357 7.83006 2.81143 8.5482C4.10047 9.73861 5.377 10.5609 5.43118 10.5943L5.76038 10.8054C5.90623 10.8985 6.09375 10.8985 6.2396 10.8054L6.56881 10.5943C6.62298 10.5595 7.89813 9.73861 9.18855 8.5482C9.96642 7.83006 10.5929 7.12164 11.0485 6.4424C11.336 6.01318 11.5624 5.58814 11.718 5.17837C11.9055 4.68803 12 4.20603 12 3.74348C12.0014 3.25315 11.9028 2.7767 11.7097 2.32804Z" fill="#E0E0E0"/>
</svg>
