<svg width="17" height="17" viewBox="0 0 17 17" fill="none" xmlns="http://www.w3.org/2000/svg">
<path d="M8.4935 1.8335C4.8135 1.8335 1.8335 4.82016 1.8335 8.50016C1.8335 12.1802 4.8135 15.1668 8.4935 15.1668C12.1802 15.1668 15.1668 12.1802 15.1668 8.50016C15.1668 4.82016 12.1802 1.8335 8.4935 1.8335ZM8.50016 13.8335C5.5535 13.8335 3.16683 11.4468 3.16683 8.50016C3.16683 5.5535 5.5535 3.16683 8.50016 3.16683C11.4468 3.16683 13.8335 5.5535 13.8335 8.50016C13.8335 11.4468 11.4468 13.8335 8.50016 13.8335ZM8.8335 5.16683H7.8335V9.16683L11.3335 11.2668L11.8335 10.4468L8.8335 8.66683V5.16683Z" fill="#E0E0E0"/>
</svg>
