<svg width="25" height="25" viewBox="0 0 25 25" fill="none" xmlns="http://www.w3.org/2000/svg">
<path d="M24.3061 12.3646C24.3061 11.5417 24.2349 10.7604 24.1128 10H12.6177V14.6979H19.1994C18.9044 16.2396 18.0397 17.5417 16.758 18.4271V21.5521H20.6846C22.9836 19.375 24.3061 16.1667 24.3061 12.3646Z" fill="#4285F4"/>
<path d="M12.6181 24.5834C15.914 24.5834 18.6708 23.4584 20.685 21.5521L16.7584 18.4271C15.6597 19.1771 14.2661 19.6354 12.6181 19.6354C9.43403 19.6354 6.73828 17.4375 5.77187 14.4688H1.72314V17.6875C3.72716 21.7709 7.8471 24.5834 12.6181 24.5834Z" fill="#34A853"/>
<path d="M5.77165 15.1161C5.51733 14.3661 5.38508 13.564 5.38508 12.7306C5.38508 11.8973 5.5275 11.0952 5.77165 10.3452V7.12646H1.72292C0.888759 8.81397 0.410645 10.7098 0.410645 12.7306C0.410645 14.7515 0.888759 16.6473 1.72292 18.3348L5.77165 15.1161Z" fill="#FBBC05"/>
<path d="M12.6181 5.1784C14.4186 5.1784 16.0259 5.81383 17.2975 7.05341L20.7766 3.4909C18.6708 1.47006 15.914 0.230469 12.6181 0.230469C7.8471 0.230469 3.72716 3.04298 1.72314 7.12633L5.77187 10.3451C6.73828 7.37633 9.43403 5.1784 12.6181 5.1784Z" fill="#EA4335"/>
</svg>
