<svg width="60" height="60" viewBox="0 0 60 60" fill="none" xmlns="http://www.w3.org/2000/svg">
<path d="M59.1663 29.9999C59.1663 46.1082 46.108 59.1666 29.9997 59.1666C13.8914 59.1666 0.833008 46.1082 0.833008 29.9999C0.833008 13.8916 13.8914 0.833252 29.9997 0.833252C46.108 0.833252 59.1663 13.8916 59.1663 29.9999Z" fill="#E0E0E0"/>
<path d="M37.0055 46.0414C43.1832 43.3397 47.5 37.174 47.5 30C47.5 20.335 39.665 12.5 30 12.5C20.335 12.5 12.5 20.335 12.5 30C12.5 37.1744 16.8173 43.3404 22.9956 46.042C19.1481 47.7246 16.0225 50.7508 14.2118 54.5276C18.7627 57.463 24.1829 59.1667 30.0012 59.1667C35.8193 59.1667 41.2395 57.463 45.7904 54.5276C43.9796 50.7505 40.8535 47.724 37.0055 46.0414Z" fill="#4B5058"/>
</svg>
