<svg width="34" height="36" viewBox="0 0 34 36" fill="none" xmlns="http://www.w3.org/2000/svg">
<path d="M0 19.0923C0 17.2823 1.46734 15.8149 3.2774 15.8149C5.08747 15.8149 6.5548 17.2823 6.5548 19.0923V32.2019C6.5548 34.0119 5.08747 35.4793 3.2774 35.4793C1.46734 35.4793 0 34.0119 0 32.2019V19.0923Z" fill="#A8D5E2"/>
<path d="M8.73975 18.7282V30.5937C8.73975 32.249 9.6749 33.7621 11.1553 34.5023L11.2643 34.5567C12.4778 35.1635 13.816 35.4794 15.1728 35.4794H27.0067C29.0898 35.4794 30.8832 34.0092 31.2918 31.9665L33.9137 18.8569C34.4545 16.1529 32.3862 13.6301 29.6286 13.6301H21.8493V4.89038C21.8493 2.47696 19.893 0.520508 17.4795 0.520508C16.2728 0.520508 15.2945 1.49875 15.2945 2.70544V4.16207C15.2945 6.05309 14.6812 7.89309 13.5466 9.40591L10.4877 13.4844C9.35308 14.9973 8.73975 16.8373 8.73975 18.7282Z" fill="#A8D5E2"/>
</svg>
